<svg id="Layer_1" data-name="Layer 1" xmlns="http://www.w3.org/2000/svg" viewBox="0 0 127.6 127.6"><defs><style>.cls-1{fill:#dee7ff;}.cls-2{fill:#006;}</style></defs><title>service</title><path class="cls-1" d="M63.8,127.6A63.8,63.8,0,1,0,0,63.8a63.8,63.8,0,0,0,63.8,63.8"/><path class="cls-2" d="M64.75,62.38V44.59a1.5,1.5,0,1,0-3,0V65.37H77.37a1.5,1.5,0,0,0,0-3H64.75Z"/><path class="cls-2" d="M63.8,92A28.41,28.41,0,1,1,92.21,63.6,28.41,28.41,0,0,1,63.8,92m0-63.61A35.21,35.21,0,1,0,99,63.6,35.21,35.21,0,0,0,63.8,28.39"/></svg>