<svg id="Layer_1" data-name="Layer 1" xmlns="http://www.w3.org/2000/svg" viewBox="0 0 116 116"><defs><style>.cls-1{fill:#dee7ff;}.cls-2{fill:#006;}</style></defs><title>service</title><path class="cls-1" d="M58,116A58,58,0,1,0,0,58a58,58,0,0,0,58,58"/><path class="cls-2" d="M40.35,79.62H37v2.71a39.63,39.63,0,0,0,5.72,1.46V82a2.36,2.36,0,0,0-2.35-2.35"/><path class="cls-2" d="M54,79.62H47.23A2.36,2.36,0,0,0,44.88,82v2.22a106.92,106.92,0,0,0,11.5,1.23V82A2.35,2.35,0,0,0,54,79.62"/><path class="cls-2" d="M37,77.5h3.37a2.36,2.36,0,0,0,2.35-2.35v-0.8c-2.08-.12-4-0.28-5.72-0.47V77.5Z"/><path class="cls-2" d="M44.88,74.46v0.69a2.36,2.36,0,0,0,2.35,2.35H54a2.36,2.36,0,0,0,2.35-2.35V74.5q-2.43.08-5.13,0.08c-2.27,0-4.39,0-6.38-.13"/><path class="cls-2" d="M67.73,79.62H60.92A2.36,2.36,0,0,0,58.57,82v3.55c1.92,0.08,4,.12,6.17.12,1.88,0,3.66,0,5.34-.09V82a2.36,2.36,0,0,0-2.35-2.35"/><path class="cls-2" d="M81.42,79.62H74.61A2.36,2.36,0,0,0,72.26,82v3.49a110.73,110.73,0,0,0,11.5-1.14V82a2.35,2.35,0,0,0-2.35-2.35"/><path class="cls-2" d="M58.57,75.15a2.35,2.35,0,0,0,2.35,2.35h6.81a2.35,2.35,0,0,0,2.35-2.35V73.29a112,112,0,0,1-11.5,1.12v0.74Z"/><path class="cls-2" d="M72.26,72.93v2.22a2.36,2.36,0,0,0,2.35,2.35h6.81a2.36,2.36,0,0,0,2.35-2.35V70.69a2.36,2.36,0,0,0-2.35-2.35H79v2.93a42.89,42.89,0,0,1-6.76,1.66"/><path class="cls-2" d="M86,82v2a42.47,42.47,0,0,0,6.55-1.62V79.62H88.3A2.35,2.35,0,0,0,86,82"/><path class="cls-2" d="M86,70.69v4.46A2.35,2.35,0,0,0,88.3,77.5h4.2V68.34H88.3A2.35,2.35,0,0,0,86,70.69"/><path class="cls-2" d="M81.42,66.56a2.35,2.35,0,0,0,2.35-2.35V59.75a2.35,2.35,0,0,0-2.35-2.35H79v9.15h2.4Z"/><path class="cls-2" d="M81.42,55.28a2.35,2.35,0,0,0,2.35-2.35V48.48a2.35,2.35,0,0,0-2.35-2.35H79v9.15h2.4Z"/><path class="cls-2" d="M86,59.75v4.46a2.35,2.35,0,0,0,2.35,2.35h4.2V57.41H88.3A2.35,2.35,0,0,0,86,59.75"/><path class="cls-2" d="M86,48.48v4.46a2.35,2.35,0,0,0,2.35,2.35h4.2V46.13H88.3A2.35,2.35,0,0,0,86,48.48"/><path class="cls-2" d="M79,44.35h2.4A2.36,2.36,0,0,0,83.77,42V40.48c-1.4-.22-3-0.43-4.75-0.62v4.49Z"/><path class="cls-2" d="M86,40.85V42a2.36,2.36,0,0,0,2.35,2.35h4.2V42.47A42.47,42.47,0,0,0,86,40.85"/><path class="cls-2" d="M70.08,61.22a4.24,4.24,0,1,1,.6-2.16,4.25,4.25,0,0,1-.6,2.16M56.39,62c-1.6,1.2-3.15,1.65-4.37,1.1-1.55-.7-2.23-2.87-2.06-5.71a17.27,17.27,0,0,1,.26-2.12A24.59,24.59,0,0,1,52,49.72a25.74,25.74,0,0,1,2-3.58,15.16,15.16,0,0,1,4.58-4.72,3.84,3.84,0,0,1,3.51-.53c1.11,0.5,1.76,1.76,2,3.46a11.21,11.21,0,0,1,.08,1.78,21.94,21.94,0,0,1-2.07,8.15c-0.16.34-.32,0.68-0.48,1-0.39.77-.8,1.51-1.24,2.2a21,21,0,0,1-1.79,2.43A14.18,14.18,0,0,1,56.39,62m-11.79-2a5.55,5.55,0,0,1-7.33,2.76L37,62.67a5.53,5.53,0,0,1-2.47-7.18L37,50l1.76-3.9,0.81-1.78,0.21-.46a5.54,5.54,0,0,1,10.09,4.57l-3.07,6.79-1.4,3.09-0.45,1Zm6.66-32c-19,0-27.76,3.32-27.76,3.32V71.27S27.83,72.91,37,73.88c1.73,0.18,3.64.34,5.72,0.47l2.18,0.11c2,0.08,4.1.13,6.38,0.13q2.7,0,5.13-.08l2.18-.09a112,112,0,0,0,11.51-1.12c0.78-.12,1.51-0.24,2.18-0.36A42.89,42.89,0,0,0,79,71.27V31.41S70.26,28.1,51.26,28.1"/></svg>