<svg id="Layer_1" data-name="Layer 1" xmlns="http://www.w3.org/2000/svg" viewBox="0 0 116 116"><defs><style>.cls-1{fill:#dee7ff;}.cls-2{fill:#006;}</style></defs><title>service</title><path class="cls-1" d="M58,116A58,58,0,1,0,0,58a58,58,0,0,0,58,58"/><path class="cls-2" d="M91.36,60.9C85.36,79.59,81.36,90.64,60,90c-23.22-.72-21.7-4.42-29.47-26,5.33,12,11.71,18.22,28.26,19.29,15,1,25.24-4.07,32.55-22.31"/><path class="cls-2" d="M42.91,49.59c-1.69.1-3.3,0.23-4.84,0.37L38,49.84c1.48-.26,3.06-0.5,4.73-0.72Zm35.71-.44C89,50.5,96,53,96,55.79,96,60,80.14,63.5,60.54,63.5c-19,0-34.51-3.25-35.43-7.33,4.59,1.82,15.56,3.09,28.37,3.09,16.93,0,30.66-2.23,30.66-5,0-1.17-2.5-2.26-6.68-3.11a14,14,0,0,0,1.16-2"/><path class="cls-2" d="M84,35.91c-5.59,1.28-4.6,11.5-9,15.64a7.91,7.91,0,0,1-7.67,1.5c0.34-4.2,3-9,7.4-12.44-4.78,2.63-8.1,7.29-8.5,11.74-2.54-1.83-3.18-5.2-.89-9C69.45,36.69,77,34.25,84,35.91"/><path class="cls-2" d="M35,35c7.48,1,7.22,14.59,13.38,19.52,2.87,2.3,7.77,2.46,10.24,1.07-0.88-5.49-4.86-11.53-11-15.49C54.22,43,59.06,48.74,60,54.55c3.15-2.7,3.65-7.21.26-11.9C54.29,34.32,44.1,32,35,35"/><path class="cls-2" d="M42,58.07l0,0,0,0c-3.07-4-6.85-8.85-9.92-12.88,1.71-5.26-1.24-6.58-5.53-4.8-2.89,1.2-5.56,4.25,1.08,7.3L30.81,56l-5.48-8.06c-7-1.28-7.11-7.5-.52-10.18,6.69-3.29,14,1.73,9.71,6.81,1.61,3,3.57,6.45,5.38,9.7Z"/></svg>