<svg id="Layer_1" data-name="Layer 1" xmlns="http://www.w3.org/2000/svg" viewBox="0 0 116 116"><defs><style>.cls-1{fill:#dee7ff;}.cls-2{fill:#006;}</style></defs><title>service</title><path class="cls-1" d="M58,116A58,58,0,1,0,0,58a58,58,0,0,0,58,58"/><path class="cls-2" d="M77.72,38.2h-35a4,4,0,0,0-4.25,3.51L38,44H27.26s0.95,1.54,10.26,2.55L36,54H20s2.46,2,15.45,2.93l-0.14.69-1.4,6.84-0.35-.11h-20s1.34,2.48,19.73,3.22l-1,5.07c-0.31,1.51.28,2.9,1.59,3a49.58,49.58,0,0,0,5.43,0c0.69-4.78,3.75-7.8,8-7.91,4.62-.12,7.62,2.61,8.69,8a1.1,1.1,0,0,0,.24.07c5.63,0,11.27,0,16.9,0a0.71,0.71,0,0,0,.77-0.76q3.4-16.68,6.8-33.36c0.49-2.43-.42-3.53-2.9-3.54"/><path class="cls-2" d="M95.52,60.25L84.29,57.17c-1.12-.31-1.25-0.51-1-1.64s0.47-2.52.66-3.79a1.23,1.23,0,0,1,1.43-1.2c2.41,0,4.82,0,7.23,0a1.38,1.38,0,0,1,1.48.83q1.79,4.36,3.57,8.73a3.91,3.91,0,0,1,.1.7c-0.85-.21-1.52-0.37-2.19-0.55M102,64.06q-3.1-7.38-6.14-14.77a2.68,2.68,0,0,0-2.73-1.85c-3.19,0-6.37,0-9.56,0a2,2,0,0,0-2.38,2Q79.08,60,77,70.6c-0.34,1.71-.66,3.43-1,5.19h3A1,1,0,0,0,79,75.61a8.25,8.25,0,0,1,8-7.83c4.69-.12,8.34,3.55,8.48,7.43a0.59,0.59,0,0,0,.74.64c0.87,0,1.74,0,2.61,0a2,2,0,0,0,2.2-1.86c0.42-2,.82-4,1.25-5.95a6.4,6.4,0,0,0-.33-4"/><path class="cls-2" d="M47.48,70.09a5.73,5.73,0,1,0,6,5.74,5.83,5.83,0,0,0-6-5.74"/><path class="cls-2" d="M87.38,70.09a5.73,5.73,0,1,0,5.9,5.77,5.82,5.82,0,0,0-5.9-5.77"/></svg>